<?xml version="1.0" encoding="UTF-8"?>
<svg id="Calque_1" data-name="Calque 1" xmlns="http://www.w3.org/2000/svg" viewBox="0 0 368.5 391.61">
  <defs>
    <style>
      .cls-1 {
        fill: #da4b2b;
      }
    </style>
  </defs>
  <path class="cls-1" d="M147.53,158.73c-3.4-.5-6.81-.99-10.16-1.44l-7.04-.99c.06-5.08.91-10.1,3.69-14.41l-2.16-9c5.16.55,10.39,1.05,15.55,1.55-.45,8.11-.28,16.23.11,24.29Z"/>
  <path class="cls-1" d="M149.18,184.34c-5.79-.11-11.58-.77-17.31-1.88-.4-5.02-.74-9.99-1.08-14.96l4.94.72c4.09.61,8.29,1.16,12.49,1.66.17,2.87.34,5.74.57,8.61.17,1.93.28,3.86.4,5.85Z"/>
  <path class="cls-1" d="M149.92,195.43c.28,4.91.51,9.77.51,14.63.06,4.91-.06,9.94-.23,14.85-5.16-.77-10.33-1.6-15.49-2.43-.68-9.6-1.36-19.15-2.04-28.7,5.68.99,11.46,1.55,17.25,1.66Z"/>
  <path class="cls-1" d="M158.71,135.43c5.62.44,11.24.88,16.86,1.27-.06,8.11-.51,16.17-1.36,24.23-.17,1.88-.34,3.7-.62,5.52-.17,1.82-.45,3.64-.74,5.41-.06.72-.17,1.49-.28,2.21l-.45,3.15c-.4,2.32-.74,4.69-1.08,7.12-.23,1.77-.45,3.59-.57,5.41-.17,1.88-.23,3.7-.23,5.57.06,1.6.11,3.15.28,4.75.23,1.77.45,3.59.62,5.41.4,3.37.79,6.73,1.08,10.1.34,4.25.4,8.5.28,12.75-3.69-.5-7.38-1.05-11.01-1.6.17-5.52.34-11.15.28-16.78,0-4.86-.23-9.77-.51-14.68-.06-1.82-.17-3.64-.28-5.52-.11-1.82-.23-3.7-.4-5.52-.11-2.15-.28-4.36-.45-6.51-.17-2.21-.34-4.42-.51-6.57-.11-1.88-.23-3.75-.34-5.57-.11-1.88-.23-3.75-.34-5.57-.45-8.28-.68-16.45-.23-24.56Z"/>
  <path class="cls-1" d="M234.31,196.98c-14.02-1.32-27.86-3.92-41.49-7.78l-3.12-.88c-2.44-.72-4.94-1.44-7.49-2.1.28-2.43.68-4.86,1.08-7.34l.51-3.15c.17-1.16.34-2.32.45-3.48,1.87.06,3.75.06,5.62.11,15.1.28,29.63.55,43.76,2.87-.51,7.23,0,14.52.68,21.75Z"/>
  <path class="cls-1" d="M237.94,139.63c.51,8.28-1.42,16.45-2.95,24.67-14.98-2.43-30.14-2.7-44.89-2.98-1.53-.06-3.01-.06-4.54-.11.85-7.89,1.31-15.84,1.36-23.73,17.03,1.05,33.99,1.77,51.02,2.15Z"/>
  <path class="cls-1" d="M235.5,208.18c.91,9.55,1.42,19.15-.28,28.59-17.14-2.1-34.28-4.36-51.42-6.79.23-5.08.11-10.16-.28-15.23-.23-3.53-.68-7.01-1.08-10.54-.23-1.77-.4-3.53-.62-5.3-.06-.44-.11-.88-.11-1.32,1.59.39,3.18.88,4.77,1.32l3.18.88c15.1,4.25,30.42,7.07,45.86,8.39Z"/>
  <g>
    <path class="cls-1" d="M148.78,178.49c.17,1.93.28,3.86.4,5.85-5.79-.11-11.58-.77-17.31-1.88-4.6-.88-9.14-2.1-13.62-3.59,1.08-4.2,1.59-8.61,1.53-12.97l11.01,1.6,4.94.72c4.09.61,8.29,1.16,12.49,1.66.17,2.87.34,5.74.57,8.61Z"/>
    <path class="cls-1" d="M159.28,165.57c4.77.39,9.53.66,14.3.88-.17,1.82-.45,3.64-.74,5.41-.06.72-.17,1.49-.28,2.21l-.45,3.15c-.4,2.32-.74,4.69-1.08,7.12-.23,1.77-.45,3.59-.57,5.41-1.31-.11-2.67-.11-3.97-.11-1.87.06-3.69.11-5.5.11-.11-1.82-.23-3.7-.4-5.52-.11-2.15-.28-4.36-.45-6.51-.17-2.21-.34-4.42-.51-6.57-.11-1.88-.23-3.75-.34-5.57Z"/>
    <path class="cls-1" d="M250.25,198.03c-5.34-.17-10.67-.5-15.95-1.05-14.02-1.32-27.86-3.92-41.49-7.78l-3.12-.88c-2.44-.72-4.94-1.44-7.49-2.1.28-2.43.68-4.86,1.08-7.34l.51-3.15c.17-1.16.34-2.32.45-3.48,1.87.06,3.75.06,5.62.11,15.1.28,29.63.55,43.76,2.87,4.6.72,9.14,1.71,13.68,2.98,1.7,6.62,2.27,12.7,2.84,18.6,0,.39.06.83.11,1.21Z"/>
    <path class="cls-1" d="M167.17,184.12h-.79c-1.82,0-3.63.06-5.45.11h-.34c.17,1.82.28,3.7.4,5.52.11,1.88.23,3.7.28,5.52,1.76-.06,3.52-.11,5.34-.11,1.19-.06,2.38,0,3.63.17,0-1.88.06-3.7.23-5.57.11-1.82.34-3.64.57-5.41-1.31-.17-2.55-.22-3.86-.22ZM158.94,160c.11,1.82.23,3.7.34,5.57.11,1.82.23,3.7.34,5.57,4.37.33,8.8.61,13.22.72.28-1.77.57-3.59.74-5.41.28-1.82.45-3.64.62-5.52-5.11-.17-10.22-.44-15.27-.94Z"/>
  </g>
  <path class="cls-1" d="M175.57,136.7c-.06,8.11-.51,16.17-1.36,24.23-.17,1.88-.34,3.7-.62,5.52-.17,1.82-.45,3.64-.74,5.41-.06.72-.17,1.49-.28,2.21l-.45,3.15c-.4,2.32-.74,4.69-1.08,7.12-.23,1.77-.45,3.59-.57,5.41-.17,1.88-.23,3.7-.23,5.57.06,1.6.11,3.15.28,4.75.23,1.77.45,3.59.62,5.41.4,3.37.79,6.73,1.08,10.1.34,4.25.4,8.5.28,12.75-.17,6.35-.85,12.7-2.1,18.99-2.16-.39-4.37-.55-6.58-.55-1.02,0-2.04,0-3.01.11l.57-16.01c.06-1.38.11-2.76.11-4.14.17-5.52.34-11.15.28-16.78,0-4.86-.23-9.77-.51-14.68-.06-1.82-.17-3.64-.28-5.52-.11-1.82-.23-3.7-.4-5.52-.11-2.15-.28-4.36-.45-6.51-.17-2.21-.34-4.42-.51-6.57-.11-1.88-.23-3.75-.34-5.57-.11-1.88-.23-3.75-.34-5.57-.45-8.28-.68-16.45-.23-24.56.17-4.86.62-9.71,1.36-14.57,5.22-1.93,10.16-2.93,14.98-3.81.45,6.57.62,13.08.51,19.65Z"/>
</svg>