<?xml version="1.0" encoding="UTF-8"?>
<svg id="Calque_1" data-name="Calque 1" xmlns="http://www.w3.org/2000/svg" viewBox="0 0 444.77 391.61">
  <defs>
    <style>
      .cls-1 {
        fill: #da4b2b;
      }

      .cls-2 {
        fill: #fff;
      }
    </style>
  </defs>
  <g>
    <g>
      <path class="cls-2" d="M212.23,122.29l-.79-2.41c-6.1-3.51-13.15-5.62-20.69-6.41-7.69-.79-15.08-1.92-22.31-3.36,1.13-6.59,3.39-12.7,6.9-18.28l-.79-2.9c-5.62-2.56-11.72-4.33-18.43-5.46l-6.9.82-10.59,22.77c-8.03-.15-15.87-.49-23.9-.79l-2.26.79-3.05-.79-3.85,2.38-2.38,3.69c.46,26.95.46,53.9,0,81,1.1,10.1,2.56,20.05,4.64,30.31,4.64,2.9,9.77,4.18,15.38,3.69.55-.06,1.13-.12,1.68-.15,1.1-1.28,2.69-2.17,4.61-2.53,4.58-.92,8.39-2.87,11.23-5.77,1.86-1.71,3.94-2.59,6.04-2.59,1.95,0,3.78.7,5.25,1.92.7-1.71,1.8-3.3,3.23-4.61,2.9-2.84,7.63-4.82,12.82-5.37.88-.06,1.77-.15,2.69-.15,9.4,0,18.89,4.46,18.89,14.34,0,.85-.09,1.71-.27,2.66-.15.85-.43,1.65-.85,2.35l12.97-1.68-.64-2.11,1.28-3.05-.64-3.2c1.59-16.02,3.36-31.89,5.77-47.46,2.26-15.72,3.85-31.59,4.97-47.64ZM183.05,206.98c-10.28.49-20.05.31-29.51,0-9.46-.49-18.62-1.77-27.28-3.69l.82-13c9.61.49,19.38.79,29.48,1.13,9.95.15,19.59,1.28,28.87,3.36l-2.38,12.21ZM187.54,175.21l-9-.79-4,.79-1.43-1.59-46.02-3.69c-.67-4.49.15-8.51,2.23-12.21,10.25.64,20.36,1.28,30.31,2.41,9.95.98,19.56,2.41,28.72,4.33l-.79,10.74ZM186.9,145.55c-9.8-1.92-19.56-3.36-29.51-4-10.1-.82-19.56-2.26-28.87-4.33l-2.26-2.9c-.64-3.05,0-5.62,1.46-7.54l16.17,1.43,2.41-.79c7.05.98,14.28,1.77,21.67,1.92,7.54.34,14.25,1.92,20.36,4.97l-1.43,11.23ZM193.95,224.29h-2.41v-2.23h2.41v2.23Z"/>
      <path class="cls-2" d="M323.99,127.12c-7.84-.82-16.02-1.62-24.2-2.75-.49-5.43.15-10.74,1.62-15.72.46-4.64-.34-8.64-2.26-12.18l-5.46-1.43-13.79.79-1.59,4.49.79,2.26-1.59,20.51c-17.49-.15-35.13.34-52.95,1.28-2.41,5.16-4,10.59-4.49,16.69.98,13.64,2.56,27.1,4.67,40.1,1.92,13.15,4.15,26.31,6.71,39.43,3.2,1.95,6.41,3.23,10.1,3.69l7.75-.46,2.99-.18h15.84c-.24-.79-.37-1.62-.37-2.5,0-4.76,3.6-8.36,8.36-8.36,4.15,0,10.41-.4,15.14-1.28.58-.12,1.07-.12,1.68-.12,4.64,0,8.24,3.72,8.24,8.48,0,1.25-.27,2.41-.76,3.48,10.68-1.1,20.94-2.78,30.79-5.13,5.13-12.51,8.82-25.67,11.23-39.31,2.23-13.46,3.85-27.44,4.97-41.69v-5.95c-7.69-2.08-15.41-3.36-23.44-4.15ZM272.99,196.39v8.97l-10.1.79c-5.62.49-10.74,0-15.23-1.59-2.08-6.59-3.05-13.64-3.05-21l1.47-3.88,28.54,1.46-1.62,15.23ZM275.4,163.19c-10.9-.64-20.84-2.56-30-6.1l-2.38-4.64.79-6.9,18.43-2.08,13.79.64-.64,19.07ZM319.84,197.83v5.95l-14.59,1.59-8.51-.79-1.43-5.92c0-5.95.95-11.57,3.05-16.69l22.28,1.62-.79,14.25ZM322.25,166.09h-26.31c1.13-7.08,2.08-13.98,3.2-20.54,8.67-.31,17,.34,25.18,2.41l-2.08,18.13Z"/>
    </g>
    <g>
      <path class="cls-1" d="M239.46,245.74c0,.24-.03.46-.06.7v.06c-.03.06-.03.12-.03.15-.03.21-.09.4-.18.58-.27,1.07-.73,2.11-1.4,3.05-.09.18-.21.34-.31.49-.06.09-.12.18-.24.27-.09.09-.15.18-.27.27,0,.03-.03.03-.03.03-.76.76-1.83,1.19-2.93,1.19-.43,0-.82-.06-1.22-.18-.31-.09-.61-.21-.88-.37-.46-.24-.85-.58-1.16-.98-1.04-1.19-1.37-2.9-.76-4.43.4-.98.85-1.92,1.31-2.87.03-.03.06-.09.09-.12v-.03c.73-1.22,1.98-1.98,3.33-2.11.4,1.01.61,1.98.61,2.96,0,.46-.09.88-.18,1.31.18-.34.37-.7.55-1.04.55-.92,1.13-1.77,1.74-2.62,1.28.79,2.04,2.17,2.04,3.66Z"/>
      <path class="cls-1" d="M233.99,248.2c.57-.78.95-1.6,1.13-2.46-.42.79-.79,1.6-1.13,2.46Z"/>
      <path class="cls-1" d="M271.69,247.7c-3.48-6.9-11.38-10.32-19.38-12.94-.46-.15-.92-.21-1.34-.21-1.13,0-2.26.43-3.08,1.25-3.75,3.75-6.53,6.99-8.36,9.83v.03s-.06.06-.06.09c-1.31,2.01-2.14,3.88-2.5,5.58,0,.03-.03.03-.03.03v.09c-.27,1.22-.31,2.38-.15,3.51.85,4.43,6.38,5.04,12.18,5.04,3.36,0,14.74-.4,20.94-5.28,2.11-1.5,2.93-4.43,1.8-7.02ZM267.39,251.17c-4.24,3.33-12.33,4.49-18.43,4.49-4.43,0-7.75-.58-7.94-1.53-.58-4,5.13-10.47,9.95-15.29,7.57,2.5,14.16,5.46,16.88,10.8.18.43,0,1.22-.46,1.53Z"/>
      <path class="cls-1" d="M179.92,220.23c-.34-1.28-1.25-2.32-2.47-2.81-2.11-.88-4.7-1.37-7.32-1.37-4.18,0-7.42,1.25-9.31,3.57-.79.98-1.13,2.23-.92,3.48.21,1.22.95,2.29,1.98,2.96,1.71,1.04,3.69,1.43,5.37,1.59.58.03,1.1.06,1.59.06,1.28,0,7.84-.18,10.44-3.78.76-1.07,1.01-2.41.64-3.69ZM168.85,223.4c-1.8,0-3.54-.34-4.7-1.04,1.16-1.4,3.48-1.98,5.98-1.98,2.04,0,4.12.37,5.65,1.01-.82,1.16-3.97,2.01-6.93,2.01Z"/>
      <path class="cls-1" d="M171.28,261.76c.64,1.04.98,2.04.98,2.96,0,2.11-1.56,3.72-3.66,3.72-.95,0-1.98-.4-3.08-1.16-15.66-11.63-31.71-11.87-52.1-11.87-2.72,0-4.12-1.98-4.12-4.06s1.4-4.03,4.12-4.03c15.78,0,27.59.12,42.54,5.71-3.78-6.16-7.84-13.92-11.05-21.76-3.6,2.26-6.41,4.18-11.87,5.22-.37.06-.64.12-.95.12-2.84,0-4.64-2.38-4.64-4.58,0-1.4.76-2.75,2.84-3.14,2.35-.46,4.61-1.19,6.71-2.2h.03c2.5-1.19,4.82-2.78,6.78-4.79.92-.82,1.95-1.28,2.96-1.28,1.56,0,3.14.98,3.78,2.69.55,1.5,1.16,2.99,1.8,4.52,4.91,11.57,12.24,23.96,18.92,33.94Z"/>
      <path class="cls-1" d="M172.26,264.72c0,2.11-1.56,3.72-3.66,3.72-.95,0-1.98-.4-3.08-1.16-15.66-11.63-31.71-11.87-52.1-11.87-2.72,0-4.12-1.98-4.12-4.06s1.4-4.03,4.12-4.03c15.78,0,27.59.12,42.54,5.71-3.78-6.16-7.84-13.92-11.05-21.76-3.6,2.26-6.41,4.18-11.87,5.22-.37.06-.64.12-.95.12-2.84,0-4.64-2.38-4.64-4.58,0-1.4.76-2.75,2.84-3.14,2.35-.46,4.61-1.19,6.71-2.2h.03c2.5-1.19,4.82-2.78,6.78-4.79.92-.82,1.95-1.28,2.96-1.28,1.56,0,3.14.98,3.78,2.69.55,1.5,1.16,2.99,1.8,4.52,4.91,11.57,12.24,23.96,18.92,33.94.64,1.04.98,2.04.98,2.96Z"/>
      <path class="cls-1" d="M167.62,231.09c-.4,0-.76,0-1.16-.03,1.5-1.37,3.51-2.17,5.77-2.17,1.53,0,2.93.37,4.12,1.04-1.98.52-3.91.85-5.28.98-1.13.12-2.29.18-3.45.18Z"/>
      <path class="cls-1" d="M185.26,251.2c-1.59-1.83-2.32-4.06-2.35-6.44.61,2.17,1.34,4.24,2.35,6.44Z"/>
      <path class="cls-1" d="M186.36,263.1c0,1.92-1.98,3.42-4.18,3.42-1.4,0-2.96-.73-3.91-2.26-5.4-8.85-8.15-17-10.07-26.25-.06-.34-.12-.7-.12-.98,0-.61.12-1.16.4-1.65.64-1.4,2.2-2.2,3.75-2.2,1.16,0,2.35.43,3.14,1.4.4.46.73,1.07.92,1.8.82,3.36,1.5,6.29,2.32,9.19v.03c.79,2.59,1.68,5.13,2.96,7.9,1.07,2.29,2.41,4.76,4.15,7.54.46.7.64,1.4.64,2.04Z"/>
      <path class="cls-1" d="M186.36,263.1c0,1.92-1.98,3.42-4.18,3.42-1.4,0-2.96-.73-3.91-2.26-5.4-8.85-8.15-17-10.07-26.25-.06-.34-.12-.7-.12-.98,0-.61.12-1.16.4-1.65.64-1.4,2.2-2.2,3.75-2.2,1.16,0,2.35.43,3.14,1.4.4.46.73,1.07.92,1.8.82,3.36,1.5,6.29,2.32,9.19v.03c.79,2.59,1.68,5.13,2.96,7.9,1.07,2.29,2.41,4.76,4.15,7.54.46.7.64,1.4.64,2.04Z"/>
      <path class="cls-1" d="M172.23,233.2c1.16,0,2.35.43,3.14,1.4-2.26.46-3.88.58-3.94.61-.92.09-1.92.18-2.96.18.64-1.4,2.2-2.2,3.75-2.2Z"/>
      <path class="cls-1" d="M170.77,212.42c-.76,0-1.56.06-2.26.12-3.78.4-7.81,1.8-10.32,4.24-1.62,1.46-2.69,3.6-2.69,5.65,0,1.68.64,3.39,2.08,4.94.27.34.61.64.98.95,2.38,1.98,5.16,2.62,7.87,2.75h.03c.4.03.76.03,1.16.03,1.16,0,2.32-.06,3.45-.18,1.37-.12,3.3-.46,5.28-.98,1.74-.46,3.51-1.07,5.01-1.86,1.98-1.01,3.51-2.29,3.78-3.85.12-.64.18-1.22.18-1.8,0-7.32-7.87-10.01-14.56-10.01ZM170.13,220.38c2.04,0,4.12.37,5.65,1.01-.82,1.16-3.97,2.01-6.93,2.01-1.8,0-3.54-.34-4.7-1.04,1.16-1.4,3.48-1.98,5.98-1.98Z"/>
      <path class="cls-1" d="M170.77,212.42c-.76,0-1.56.06-2.26.12-3.78.4-7.81,1.8-10.32,4.24-1.62,1.46-2.69,3.6-2.69,5.65,0,1.68.64,3.39,2.08,4.94.27.34.61.64.98.95,2.38,1.98,5.16,2.62,7.87,2.75h.03c.4.03.76.03,1.16.03,1.16,0,2.32-.06,3.45-.18,1.37-.12,3.3-.46,5.28-.98,1.74-.46,3.51-1.07,5.01-1.86,1.98-1.01,3.51-2.29,3.78-3.85.12-.64.18-1.22.18-1.8,0-7.32-7.87-10.01-14.56-10.01ZM170.13,220.38c2.04,0,4.12.37,5.65,1.01-.82,1.16-3.97,2.01-6.93,2.01-1.8,0-3.54-.34-4.7-1.04,1.16-1.4,3.48-1.98,5.98-1.98Z"/>
      <path class="cls-1" d="M178.6,245.62c.79,2.59,1.68,5.13,2.96,7.9-1.74-2.23-2.75-4.91-2.96-7.9Z"/>
      <path class="cls-1" d="M239.64,244.43c0,.43-.03.85-.12,1.19v.03c-.03.31-.06.55-.12.79v.06c-.03.06-.03.12-.03.15l-.03.03c-.03.18-.09.37-.15.55-.06.18-.15.34-.24.52-.34.67-.64,1.34-.95,2.04-.06.15-.12.34-.21.49-.09.18-.21.34-.31.49-.06.09-.12.18-.24.27-.06.15-.18.27-.31.4-.95,1.16-2.14,2.17-3.51,3.02-.27.18-.55.34-.85.52-.03-.09-.03-.18-.03-.27,0-.76.09-1.56.24-2.35-.31-.09-.61-.21-.88-.37-.46-.24-.85-.58-1.16-.98-.73.46-1.53.92-2.35,1.34-2.72,1.43-5.83,2.72-9.13,3.75,2.26,4.03,10.16,13.61,13.73,16.05,1.43.88,2.08,2.23,2.08,3.57,0,2.26-1.68,4.36-3.94,4.36-.64,0-1.34-.12-2.11-.64-6.1-3.57-17.4-5.31-23.87-5.31-1.74,0-3.48-.27-5.28-.27-.89,0-1.71.06-2.56.27-.18.06-.37.06-.58.06-2.17,0-4.3-2.2-4.3-4.3s2.2-4.24,8.42-3.97c5.58.18,10.96.31,16.48,1.34-1.4-1.98-4.09-5.22-6.07-9.31-2.26.31-4.52.52-6.68.52-7.05,0-13.73-1.86-18.56-6.5-.27-.24-.52-.52-.76-.79-1.59-1.83-2.32-4.06-2.35-6.44t-.03-.06v-.21c0-2.93,1.1-6.07,2.84-9.16.95-1.74,2.75-2.56,4.43-2.56,1.86,0,3.51,1.01,3.51,2.93,0,.58-.12,1.22-.49,1.98-.52,1.1-1.92,4.36-1.92,6.32,0,.49.06.95.37,1.19,3.72,3.23,8.09,4.36,13.28,4.36.79,0,1.5,0,2.26-.06-.06-2.44,1.8-3.39,3.72-3.39,1.8,0,3.72.82,4.3,1.98,4.94-.82,9.37-2.11,11.29-4.49-2.62-3.42-6.41-5.92-10.93-7.84-1.71-.7-2.35-1.98-2.35-3.27,0-2.04,1.71-4.18,4.09-4.18.52,0,1.1.15,1.68.34,3.85,1.62,8.97,3.6,13.79,9.7.37.46.7.92,1.01,1.37.37.58.7,1.16.95,1.74.4,1.01.61,1.98.61,2.96,0,.46-.09.88-.18,1.31.18-.34.37-.7.55-1.04.55-.92,1.13-1.77,1.74-2.62.43-.64.92-1.28,1.4-1.89.55,1.4.82,2.84.82,4.24Z"/>
      <path class="cls-1" d="M230.73,251.02c-.73.46-1.53.92-2.35,1.34-2.72,1.43-5.83,2.72-9.13,3.75,2.26,4.03,10.16,13.61,13.73,16.05,1.43.89,2.08,2.23,2.08,3.57,0,2.26-1.68,4.36-3.94,4.36-.64,0-1.34-.12-2.11-.64-6.1-3.57-17.4-5.31-23.87-5.31-1.74,0-3.48-.27-5.28-.27-.89,0-1.71.06-2.56.27-.18.06-.37.06-.58.06-2.17,0-4.3-2.2-4.3-4.3s2.2-4.24,8.42-3.97c5.58.18,10.96.31,16.48,1.34-1.4-1.98-4.09-5.22-6.07-9.31-2.26.31-4.52.52-6.68.52-7.05,0-13.73-1.86-18.56-6.5-.27-.24-.52-.52-.76-.79-1.59-1.83-2.32-4.06-2.35-6.44t-.03-.06v-.21c0-2.93,1.1-6.07,2.84-9.16.95-1.74,2.75-2.56,4.43-2.56,1.86,0,3.51,1.01,3.51,2.93,0,.58-.12,1.22-.49,1.98-.52,1.1-1.92,4.36-1.92,6.32,0,.49.06.95.37,1.19,3.72,3.23,8.09,4.36,13.28,4.36.79,0,1.5,0,2.26-.06-.06-2.44,1.8-3.39,3.72-3.39,1.8,0,3.72.82,4.3,1.98,4.94-.82,9.37-2.11,11.29-4.49-2.62-3.42-6.41-5.92-10.93-7.84-1.71-.7-2.35-1.98-2.35-3.27,0-2.04,1.71-4.18,4.09-4.18.52,0,1.1.15,1.68.34,3.85,1.62,8.97,3.6,13.79,9.7.37.46.7.92,1.01,1.37.37.58.7,1.16.95,1.74.4,1.01.61,1.98.61,2.96,0,.46-.09.89-.18,1.31-.43.79-.79,1.62-1.13,2.47l-3.27,2.81Z"/>
      <path class="cls-1" d="M274.72,245.35c-2.44-4.18-6.04-7.14-9.95-9.4h-.03c-2.72-1.56-5.55-2.75-8.27-3.75.34-2.38-1.77-4.64-4.09-4.64-1.04,0-1.98.4-2.84,1.28-3.75,3.69-7.51,7.23-10.71,11.35-.49.61-.98,1.25-1.4,1.89-.61.85-1.19,1.71-1.74,2.62-.18.34-.37.7-.55,1.04.09-.43.18-.85.18-1.31,0-.98-.21-1.95-.61-2.96-.24-.58-.58-1.16-.95-1.74-.61.89-1.22,1.8-1.8,2.75-.15.31-.34.61-.49.92l-.09.18v.03l-.06.12c-.18.34-.34.73-.43,1.1-.03.27-.18.55-.4.82-.18.31-.37.61-.52.95-.79,2.01-1.34,3.94-1.59,5.77.82-.43,1.62-.88,2.35-1.34.31.4.7.73,1.16.98.27.15.58.27.89.37-.15.79-.24,1.59-.24,2.35,0,.09,0,.18.03.27.06,3.39,1.71,6.41,6.13,7.6,3.72,1.1,7.57,1.62,11.41,1.62,7.57,0,15.23-2.14,21.94-6.41.37-.24.73-.55,1.04-.85,1.86-1.74,2.84-4.3,2.84-6.87,0-1.65-.4-3.27-1.22-4.73ZM241.02,254.13c-.58-4,5.13-10.47,9.95-15.29,7.57,2.5,14.16,5.46,16.88,10.8.18.43,0,1.22-.46,1.53-4.24,3.33-12.33,4.49-18.43,4.49-4.43,0-7.75-.58-7.94-1.53Z"/>
      <path class="cls-1" d="M274.72,245.35c-2.44-4.18-6.04-7.14-9.95-9.4h-.03c-2.72-1.56-5.55-2.75-8.27-3.75.34-2.38-1.77-4.64-4.09-4.64-1.04,0-1.98.4-2.84,1.28-3.75,3.69-7.51,7.23-10.71,11.35-.49.61-.98,1.25-1.4,1.89-.61.85-1.19,1.71-1.74,2.62-.18.34-.37.7-.55,1.04-.18.85-.55,1.68-1.13,2.47-.55,1.37-.98,2.75-1.22,4.15-.15.79-.24,1.59-.24,2.35,0,.09,0,.18.03.27.06,3.39,1.71,6.41,6.13,7.6,3.72,1.1,7.57,1.62,11.41,1.62,7.57,0,15.23-2.14,21.94-6.41.37-.24.73-.55,1.04-.85,1.86-1.74,2.84-4.3,2.84-6.87,0-1.65-.4-3.27-1.22-4.73ZM241.02,254.13c-.58-4,5.13-10.47,9.95-15.29,7.57,2.5,14.16,5.46,16.88,10.8.18.43,0,1.22-.46,1.53-4.24,3.33-12.33,4.49-18.43,4.49-4.43,0-7.75-.58-7.94-1.53Z"/>
      <path class="cls-1" d="M296.89,219.86c0,1.68-.98,3.27-3.11,3.78-.06.03-.15.03-.24.06-5.19.98-12.3,1.46-17.4,1.46-1.5,0-2.59-.61-3.2-1.53-.55-.7-.82-1.59-.82-2.5,0-1.98,1.34-4.03,4.03-4.03,4.64,0,11.11-.46,15.93-1.37.31-.06.58-.06.89-.06,2.44,0,3.94,2.08,3.94,4.18Z"/>
      <path class="cls-1" d="M296.89,219.86c0,1.68-.98,3.27-3.11,3.78-.06.03-.15.03-.24.06-5.19.98-12.3,1.46-17.4,1.46-1.5,0-2.59-.61-3.2-1.53-.55-.7-.82-1.59-.82-2.5,0-1.98,1.34-4.03,4.03-4.03,4.64,0,11.11-.46,15.93-1.37.31-.06.58-.06.89-.06,2.44,0,3.94,2.08,3.94,4.18Z"/>
      <path class="cls-1" d="M273.09,256.94c.06-.4.09-.98.09-1.71,0-4.36-1.59-10.96-6.07-15.26-1.19-1.19-1.98-2.53-2.35-4.03,3.91,2.26,7.51,5.22,9.95,9.4.82,1.47,1.22,3.08,1.22,4.73,0,2.56-.98,5.13-2.84,6.87Z"/>
      <path class="cls-1" d="M322.62,256.18c0,1.86-1.68,3.66-4.64,3.72-12.24.18-21.55,1.68-32.78,6.1-1.22.43-2.38.7-3.33.7-3.08,0-5.01-2.2-5.01-5.46,0-.67,0-1.4.21-2.26,2.01-2.41,3.14-5.58,3.14-8.91,0-2.47-.58-4.76-1.8-6.93-2.47-4.24-5.95-7.39-9.61-9.74.15-2.14,1.8-3.94,3.88-3.94.76,0,1.74.27,2.5,1.04,6.29,5.58,11.05,14.31,11.05,24.51,0,.58,0,1.16-.09,1.74,6.5-2.04,12.97-3.39,19.59-4.18-4.49-4.03-7.78-8.58-10.93-13.15-.52-.82-.76-1.59-.76-2.38,0-2.23,2.04-4.03,4.18-4.03,1.16,0,2.38.58,3.27,1.86,4.94,7.17,9.49,13.21,18.16,17.33,2.04.95,2.96,2.5,2.96,3.97Z"/>
      <path class="cls-1" d="M322.62,256.18c0,1.86-1.68,3.66-4.64,3.72-12.24.18-21.55,1.68-32.78,6.1-1.22.43-2.38.7-3.33.7-3.08,0-5.01-2.2-5.01-5.46,0-.67,0-1.4.21-2.26,2.01-2.41,3.14-5.58,3.14-8.91,0-2.47-.58-4.76-1.8-6.93-2.47-4.24-5.95-7.39-9.61-9.74.15-2.14,1.8-3.94,3.88-3.94.76,0,1.74.27,2.5,1.04,6.29,5.58,11.05,14.31,11.05,24.51,0,.58,0,1.16-.09,1.74,6.5-2.04,12.97-3.39,19.59-4.18-4.49-4.03-7.78-8.58-10.93-13.15-.52-.82-.76-1.59-.76-2.38,0-2.23,2.04-4.03,4.18-4.03,1.16,0,2.38.58,3.27,1.86,4.94,7.17,9.49,13.21,18.16,17.33,2.04.95,2.96,2.5,2.96,3.97Z"/>
    </g>
  </g>
  <g>
    <path class="cls-2" d="M87.15,317.46c-.82.15-.46-.29-3.03.17-1.36.24-3.52.55-3.63.57l-.82.37h-2.32s-1.26.38-1.26.38c-.04,0-.07.01-.11.02-1.29.23-2.02-2.67-2.02-2.67l-.65-1.8-.58-5.36.25-1.08c0-.19-.1-1.61-.44-3.54-.45-2.54-1.27-4.24-1.27-4.24l.02-1.15-.02-.55c-.15-1.08,2.09-2.18,2.09-2.18l.65.73.89.25.25,1.21s.27.69.34,1.08c.09.54.07,1.43.28,2.64.2.92.5,1.76.67,2.76.08.46.13.97.16,1.52.02,1.14.08,2.94.08,3.16l.44,2.06.42,1.55.03.77c.07.21.21.59.57.53l3.52-.73s.04,0,.07-.01c.68-.12,1.54.17,2.44.01.86-.15,1.21-.66,2.04-.8,1.29-.23,2.42,1.38,2.56,2.17.19,1.07-.43,1.96-1.61,2.17Z"/>
    <path class="cls-2" d="M91.95,301.98v.66s-.35,1.13-.35,1.13l-.27,1.38-.39.51s-1.15,2.05-2.05,2.21c-1.04.18-2.11-.25-2.31-1.4-.11-.61.6-1.4.97-2.24.61-1.36.38-2.87.38-2.87l.16-.99-.67.19-.62-.41-.69-.17s-.87-.95-1.05-1.99c-.22-1.25.73-2.53,2.13-2.77,2.54-.45,4.27,2.05,4.69,4.41.17.97.08,2.35.08,2.35Z"/>
    <path class="cls-2" d="M113.45,317.88c-.57.1-1.79-.72-1.79-.72l-.63-1.07-.13-1.38-.5-.76s-.93-1.28-1.24-2.22c-.75-1.75-1.32-2.9-1.93-2.79-.72.13-2.85,1.2-4.6,1.51-1,.18-1.43.29-1.49.74l-.31,1.16-.09.97-.31.94-.17.92-.75,1.42-.44,2.29c-.18.84-1.25,1.7-1.71,1.78-.75.13-2.24-.79-2.42-1.82-.18-1,.63-3.1.84-3.58.03-.45.09-1.6.26-2.3.29-1.08.89-2.67.89-2.67l1.11-3.52.53-3.08.4-1.07.79-3.05c.41-1.62.7-3.37,2.38-3.67,1.32-.23,2.04.27,3.38,2.21l3.6,5.56.46,1.14,2.42,3.48c.22.22.75.72.89,1.06.59,1.04.73,2.05,1.27,2.8.66,1.03,1.3,1.91,1.39,2.41.16.93-1.29,3.14-2.08,3.28ZM105.13,304l-.29-.61-1.08-1.32s-.25-.8-.65-.73c-.54.09-1.43,2.54-1.47,3.8-.01.33-.02.71.02.96.04.21.09.32.24.29l3.11-.77c.46-.12.9-.34.87-.52-.06-.32-.75-1.09-.75-1.09Z"/>
    <path class="cls-2" d="M124.2,305.86c-1.65.48-3.25,1.46-3.24,2.53v.88s-.44,1.85-.44,1.85c0,0-.01.33.12,1.12.3,1.72,1.16,3.04,1.28,3.69.18,1.04-.32,3.01-1.61,3.24-.61.11-1.35-.54-1.75-1.17l-.47-.8-.55-.79-.32-2.05-.27-.69-.18-1.22-.28-.95v-1.66s-.59-2.33-.59-2.33l-.74-1.9-.53-2.19s-.02-.11-.03-.14c-.16-.89.38-1.8,1.56-2.01.68-.12,1.9.51,2.01,1.16l.02.33.33.61.08.47.18.37c.12.27.32.54.6.48,1.5-.27,1.95-2.56,3.84-2.89,1.79-.32,3.31.34,3.47,1.27.16.89-1.12,2.41-2.49,2.8Z"/>
    <path class="cls-2" d="M136.91,303.68c-.29.46-.56,1.02-1.09,1.12-.04,0-.07.01-.11.02l-.62.04-.93.35-.67.16.48,2.94-.11,1.86.58,2.26.19,1.7.62,2.25-.03,1.08.19.67-.34.98-.62,1.29h-.56s-1.07.21-1.07.21c0,0-1.01-1.33-1.14-2.05-.11-.61-.02-1.36.03-1.74l-.75-3.22.19-1.25-.1-.79-.48-1.65-.35-2.19v-1.33s-.3-.36-.3-.36l-2.69.22c-.72.09-1.32-.36-1.47-1.22-.09-.5.35-2.61.35-2.61,0,0,1.5.14,2.04.05.57-.14,1.46-.29,1.36-.87v-.04s-.45-1.69-.45-1.69l.05-.97-.04-.66.12-.76c-.01-.07-.07-.17-.09-.32-.14-.79-.08-2.35,1.81-2.68,1-.18,1.68.29,1.86,1.33.03.14-.09,1.6-.08,1.82l.33,1.46.1,1.2c.05.29.17.56.53.5l1.53-.12c.8-.07,2.24.78,2.42,1.79.06.36-.4.85-.67,1.23Z"/>
    <path class="cls-2" d="M160.56,306.04c.15.42.74,2.3.92,3.31.39,2.22.17,3.66.27,4.27l.53,3.41.17,1.78-.58.91c-.15.4-.51,1.09-.97,1.17-.72.13-1.84-.19-2.11-1.07l-.56-1.49s0-.19-.02-.33c-.01-.07-.02-.11-.05-.1-.5.09-2.17,1.31-4.28,1.68-3.61.64-6.74-1.8-7.31-5.06-.12-.68-.14-2.67-.14-2.67l.58-2.13.76-.91s.99-1.5,1.86-2.21c1.45-1.21,2.41-1.79,4.27-2.16l1.57-.31.62-.04s.11-.02.14-.03c.43-.08.48-.42.42-.77-.02-.11-.07-.21-.09-.32l-.45-1.29-.29-1.83s-.56-5.88,1.23-6.19c1.25-.22,1.68,1.14,1.84,2.07.06.36.07.61.1.76.21,1.18.79,2.81,1.33,5.85.14.79.22,3.13.24,3.68ZM157.59,309.73c-.09-.54-.95-.98-.95-.98l-.76-.57-1.54.27c-2.54.45-4.43,3.11-4.05,5.25.27,1.5,1.53,2.42,3.14,2.14,1-.18,2-.61,2.87-1.72.31-.31.36-.88.36-.88l.37-1.25.06-.71.36-.65.14-.69c.02-.08.01-.15,0-.22Z"/>
    <path class="cls-2" d="M166.93,301.98v.66s-.35,1.13-.35,1.13l-.27,1.38-.39.51s-1.15,2.05-2.05,2.21c-1.04.18-2.11-.25-2.31-1.4-.11-.61.6-1.4.97-2.24.61-1.36.38-2.87.38-2.87l.16-.99-.67.19-.62-.41-.69-.17s-.87-.95-1.05-1.99c-.22-1.25.73-2.53,2.13-2.77,2.54-.45,4.27,2.05,4.69,4.41.17.97.08,2.35.08,2.35Z"/>
    <path class="cls-2" d="M180.7,312.13c-1.97.35-4.45.08-5.95.35-.93.16-1.42.54-1.35.94.02.11.12.24.21.33,1.15,1.09,3.46,1.82,3.89,1.97l1.01.08,1.2-.1.71.46,1,.42.47,1.83-.48.64-.29.64s-.83.52-1.15.57c-1.79.32-4.56-.75-4.56-.75l-1.58-.61-.51-.61-2.41-1.94s-.78-1.08-.91-1.79c-.11-.61-.03-1.43,0-1.7l-.28-1.98c-.08-.46.07-2.52.07-2.52,0,0,1.46-2.36,2.51-3.32.83-.74,1.79-1.16,1.79-1.16l.8-.51,1.94-.53c3.15-.56,5.62,1.52,6.35,5.67.28,1.61-.78,3.31-2.46,3.61ZM181.59,298.8c.14.79-.63,1.88-1.27,2l-.43.08c-.5.09-.91.09-1.84-.6l-.55-.38-.58-.38-.58-.34c-.2-.11-.31-.28-.49-.25h-.04c-.21.08-.19.37-.25.49l-.29.68-.42.77c-.39.7-1.16,1.16-1.98,1.31-.75.13-1.56-.46-1.68-1.18-.04-.25-.02-.51.12-.76l.29-.64.35-1.17.95-1.94c.41-.81,1.13-1.56,2.06-1.73.64-.11,2.03.42,2.97,1.17l1.93,1.54.83.33.6.48c.17.12.24.33.27.5ZM177.59,306c-.39.07-.96.43-.96.43l-.82.37-1.44.22c-.64.11-.86.96-.76,1.54.04.25.14.57.42.7.24.11.56.05.92-.01l.71-.13c.14-.03.29-.01.4-.03l1.17-.06,1.25-.26c1.25-.26,1.25-.63,1.14-1.27-.12-.68-1.14-1.64-2.03-1.49Z"/>
    <path class="cls-2" d="M194.15,303.68c-.29.46-.56,1.02-1.09,1.12-.04,0-.07.01-.11.02l-.62.04-.93.35-.67.16.48,2.94-.11,1.86.58,2.26.19,1.7.62,2.25-.03,1.08.19.67-.34.98-.62,1.29h-.56s-1.07.21-1.07.21c0,0-1.01-1.33-1.14-2.05-.11-.61-.02-1.36.03-1.74l-.75-3.22.19-1.25-.1-.79-.48-1.65-.35-2.19v-1.33s-.3-.36-.3-.36l-2.69.22c-.72.09-1.32-.36-1.47-1.22-.09-.5.35-2.61.35-2.61,0,0,1.5.14,2.04.05.57-.14,1.46-.29,1.36-.87v-.04s-.45-1.69-.45-1.69l.05-.97-.04-.66.12-.76c-.01-.07-.07-.17-.09-.32-.14-.79-.08-2.35,1.81-2.68,1-.18,1.68.29,1.86,1.33.03.14-.09,1.6-.08,1.82l.33,1.46.1,1.2c.05.29.17.56.53.5l1.53-.12c.8-.07,2.24.78,2.42,1.79.06.36-.4.85-.67,1.23Z"/>
    <path class="cls-2" d="M204.24,305.86c-1.65.48-3.25,1.46-3.24,2.53v.88s-.44,1.85-.44,1.85c0,0-.01.33.12,1.12.3,1.72,1.16,3.04,1.28,3.69.18,1.04-.32,3.01-1.61,3.24-.61.11-1.35-.54-1.75-1.17l-.47-.8-.55-.79-.32-2.05-.27-.69-.18-1.22-.28-.95v-1.66s-.59-2.33-.59-2.33l-.74-1.9-.53-2.19s-.02-.11-.03-.14c-.16-.89.38-1.8,1.56-2.01.68-.12,1.9.51,2.01,1.16l.02.33.33.61.08.47.18.37c.12.27.32.54.6.48,1.5-.27,1.95-2.56,3.84-2.89,1.79-.32,3.31.34,3.47,1.27.16.89-1.12,2.41-2.49,2.8Z"/>
    <path class="cls-2" d="M218.71,312.13c-1.97.35-4.45.08-5.95.35-.93.16-1.42.54-1.35.94.02.11.12.24.21.33,1.15,1.09,3.46,1.82,3.89,1.97l1.01.08,1.2-.1.71.46,1,.42.47,1.83-.48.64-.29.64s-.83.52-1.15.57c-1.79.32-4.56-.75-4.56-.75l-1.58-.61-.51-.61-2.41-1.94s-.78-1.08-.91-1.79c-.11-.61-.03-1.43,0-1.7l-.28-1.98c-.08-.46.07-2.52.07-2.52,0,0,1.46-2.36,2.51-3.32.83-.74,1.79-1.16,1.79-1.16l.8-.51,1.94-.53c3.15-.56,5.62,1.52,6.35,5.67.28,1.61-.78,3.31-2.46,3.61ZM215.6,306c-.39.07-.96.43-.96.43l-.82.37-1.44.22c-.64.11-.86.96-.76,1.54.04.25.14.57.42.7.24.11.56.05.92-.01.25-.04.5-.09.71-.13.14-.03.29-.01.4-.03l1.17-.06,1.25-.26c1.25-.26,1.25-.63,1.14-1.27-.12-.68-1.14-1.64-2.03-1.49Z"/>
    <path class="cls-2" d="M244.89,312.11l-1.1,1.89-.31.94-.76,1.13-.49,1.01-.33.43-.73,1.31c-.24.52-1.09,1.15-1.48,1.22-.89.16-3.14-1.48-4.29-3.38-1.38-2.16-3.98-4.39-3.98-4.39l-.59-.63-.85-.4-.47-1.21s.27-2.04,1.63-2.28c.97-.17,3.84,2.09,5.7,4.49.57.71.9,1.98,1.33,1.9.29-.05.6-.55.6-.55l.74-.39c.88-.45,2.07-2.1,2.65-3.83l.85-2.51.64-.56c.13-.28.75-.98,1.29-1.08.97-.17,1.83.53,2,1.53s.13,1.6-2.05,5.34Z"/>
    <path class="cls-2" d="M256.25,318.18c-3.15.56-5.81-.52-5.81-.52l-1.16-.28-1.34-1.53c-.92-1.05-1.29-1.69-1.57-3.26-.5-2.83,2.24-7.78,6-8.44.14-.03.29-.01.44-.04l1.53-.12.89.43,1.42.3.71.65s4.19,2.62,4.55,4.69c.54,3.04-3.72,7.78-5.65,8.12ZM257.78,309.5l-.38-.49-.81-.23-1.25-1-1.43.03-1.26-.26s-3.58,1.26-3,4.55c.32,1.83,3.68,2.67,5.4,2.37,1.15-.2,3.56-1.81,3.27-3.42-.01-.07-.07-.17-.08-.24l-.46-1.32Z"/>
    <path class="cls-2" d="M274.7,308.9l.16.71s.02.11.03.14c.13.75-.41,1.25-.9,3.26-.5,1.79-1.27,3.25-1.27,3.25l-.96.83-1,1.02-1.22.21c-2.83.5-7.21-2.82-7.9-6.69-.01-.07-.02-.11-.03-.18l-.23-1.51-.21-1.22.21-.67c0-.48.16-1.84,1.66-2.1.93-.17,1.69.18,1.84,1.04l.71,4.63c.09.54.44,1.21,1.05,1.58l.49.28.58.6c.27.28.65.36,1.08.29,1.18-.21,1.15-1.83,1.15-1.83l.89-1.23.19-1.44-.5-3.01c-.06-.32.53-2.01,1.57-2.2.07-.01.15.01.22,0,.7-.01.89.43,1.4.82.26.21.72.76.72.76l.38,1.3-.14,1.32Z"/>
    <path class="cls-2" d="M285.49,308.07c-.07.01-.11.02-.11.02l-1.79-1.38-.54-.16c-.19-.04-.38-.08-.56-.05-.64.11-1.2.73-1.07,1.48.04.25.42.48.69.54l2.09.55.72.5.96.24s1.64,2.4,1.88,3.76c.28,1.61-.11,2.71-.27,3.07l-.18,1.07-1.99,1.49s-.97,1.17-2.98,1.52c-1.61.28-3.85.13-6.14-.5-1.08-.29-1.96-1.09-2.15-2.13-.1-.57,1.23-1.8,1.23-1.8l1,.04.9-.12,1.75.5.83-.11s1.57.31,2.1.22c.93-.16,2.61-1.53,2.41-2.68-.08-.46-.74-.86-1.64-1.33-3.11-1.74-4.41-1.58-4.74-3.44-.4-2.25.23-3.73.23-3.73l1.21-1.5,1.04-.37s1.69-.67,2.44-.8c1.93-.34,4.54,1.26,4.72,2.27.4,2.25-1.54,2.75-2.04,2.83Z"/>
    <path class="cls-2" d="M298.09,309.53l-1.8.46h-1.29s-1.53.35-1.53.35l-.52-.02-1.41.4c-.18.03-.35.1-.5.12-1.79.32-2.91-.41-3.04-1.12-.12-.68.47-1.74,1.71-2l2.21-.46,1.79-.13,2.31-.52.66-.04,1.43-.29c.11-.02.21-.04.32-.06,1.29-.23,2.46.34,2.62,1.24.2,1.14-1.02,1.51-2.95,2.07Z"/>
    <path class="cls-2" d="M322.45,317.32c-.64.11-1.68-1.18-2-2.34l-.33-1.23s.01-1.4-.08-1.91c-.11-.61-.11-1.24-.21-1.81-.09-.54-.29-1.02-.84-1.4-.5-.35-1.3-.69-1.77-.61-.14.03-.24.08-.3.2l-.37.62-.72.53-.22.44-.07.64-.45.78.76,3.7s.02.11.03.14c.25,1.43-.52,2.71-1.48,2.88-.86.15-1.92-.44-2.07-1.26l-.23-1.1-.56-1.08-.39-3.03c-.01-.07-.03-.18-.04-.25-.3-1.72-.91-3.09-1.92-2.91-.32.06-.84.7-.84.7l-.59.4-.19,1.21s-.77,1.46-.62,2.32c.28,1.57,1.27,3.02,1.52,4.42.27,1.54-.86,3.47-1.69,3.62-.43.08-.97-.27-1.18-.42l-.85-.4-.37-1.04-.34-1.12v-1.95s-.83-3.4-.83-3.4l.08-1.45-.31-1.94.08-.83-.22-2.73c-.11-1.24.43-2.18,1.57-2.38.93-.16,1.57,1.35,1.84,2.29.5-.12,1.15-.39,1.31-.53,1.03-.66,1.1-.86,1.82-.98,1-.18,2.57,1.58,3.35,2.03.2.11.36.16.5.13.14-.03.27-.12.49-.35l1.26-1.44,2.39-.9s.11-.02.18-.03c1.29-.23,3.94,2.04,3.94,2.04l.8.75.33,1.05.64,1.33,1.02,5.17c.12.68-.79,3.24-1.83,3.42Z"/>
    <path class="cls-2" d="M336.06,312.13c-1.97.35-4.45.08-5.95.35-.93.16-1.42.54-1.35.94.02.11.12.24.21.33,1.15,1.09,3.46,1.82,3.89,1.97l1.01.08,1.2-.1.71.46,1,.42.47,1.83-.48.64-.29.64s-.83.52-1.15.57c-1.79.32-4.56-.75-4.56-.75l-1.58-.61-.51-.61-2.41-1.94s-.78-1.08-.91-1.79c-.11-.61-.03-1.43,0-1.7l-.28-1.98c-.08-.46.07-2.52.07-2.52,0,0,1.46-2.36,2.51-3.32.83-.74,1.79-1.16,1.79-1.16l.8-.51,1.94-.53c3.15-.56,5.62,1.52,6.35,5.67.28,1.61-.78,3.31-2.46,3.61ZM336.96,298.8c.14.79-.63,1.88-1.27,2l-.43.08c-.5.09-.91.09-1.84-.6l-.55-.38-.58-.38-.58-.34c-.2-.11-.31-.28-.49-.25h-.04c-.21.08-.19.37-.25.49l-.29.68-.42.77c-.39.7-1.16,1.16-1.98,1.31-.75.13-1.56-.46-1.68-1.18-.04-.25-.02-.51.12-.76l.29-.64.35-1.17.95-1.94c.41-.81,1.13-1.56,2.06-1.73.64-.11,2.03.42,2.97,1.17l1.93,1.54.83.33.6.48c.17.12.24.33.27.5ZM332.95,306c-.39.07-.96.43-.96.43l-.82.37-1.44.22c-.64.11-.86.96-.76,1.54.04.25.14.57.42.7.24.11.56.05.92-.01l.71-.13c.14-.03.29-.01.4-.03l1.17-.06,1.25-.26c1.25-.26,1.25-.63,1.14-1.27-.12-.68-1.14-1.64-2.03-1.49Z"/>
    <path class="cls-2" d="M359.78,317.32c-.64.11-1.68-1.18-2-2.34l-.33-1.23s.01-1.4-.08-1.91c-.11-.61-.11-1.24-.21-1.81-.09-.54-.29-1.02-.84-1.4-.5-.35-1.3-.69-1.77-.61-.14.03-.24.08-.3.2l-.37.62-.72.53-.22.44-.07.64-.45.78.76,3.7s.02.11.03.14c.25,1.43-.52,2.71-1.48,2.88-.86.15-1.92-.44-2.07-1.26l-.23-1.1-.56-1.08-.39-3.03c-.01-.07-.03-.18-.04-.25-.3-1.72-.91-3.09-1.92-2.91-.32.06-.83.7-.83.7l-.59.4-.19,1.21s-.77,1.46-.62,2.32c.28,1.57,1.27,3.02,1.52,4.42.27,1.54-.86,3.47-1.69,3.62-.43.08-.97-.27-1.18-.42l-.85-.4-.37-1.04-.34-1.12v-1.95s-.83-3.4-.83-3.4l.08-1.45-.31-1.94.08-.83-.22-2.73c-.11-1.24.43-2.18,1.57-2.38.93-.16,1.57,1.35,1.84,2.29.5-.12,1.15-.39,1.31-.53,1.03-.66,1.1-.86,1.82-.98,1-.18,2.57,1.58,3.35,2.03.2.11.36.16.5.13.14-.03.27-.12.49-.35l1.26-1.44,2.39-.9s.11-.02.18-.03c1.29-.23,3.94,2.04,3.94,2.04l.8.75.33,1.05.64,1.33,1.02,5.17c.12.68-.79,3.24-1.83,3.42Z"/>
    <path class="cls-2" d="M373.4,312.13c-1.97.35-4.45.08-5.95.35-.93.16-1.42.54-1.35.94.02.11.12.24.21.33,1.15,1.09,3.46,1.82,3.89,1.97l1.01.08,1.2-.1.71.46,1,.42.47,1.83-.48.64-.29.64s-.83.52-1.15.57c-1.79.32-4.56-.75-4.56-.75l-1.58-.61-.51-.61-2.41-1.94s-.78-1.08-.91-1.79c-.11-.61-.03-1.43,0-1.7l-.28-1.98c-.08-.46.07-2.52.07-2.52,0,0,1.46-2.36,2.51-3.32.83-.74,1.79-1.16,1.79-1.16l.8-.51,1.94-.53c3.15-.56,5.62,1.52,6.35,5.67.28,1.61-.78,3.31-2.46,3.61ZM370.29,306c-.39.07-.96.43-.96.43l-.82.37-1.44.22c-.64.11-.86.96-.76,1.54.04.25.14.57.42.7.24.11.56.05.92-.01.25-.04.5-.09.71-.13.14-.03.29-.01.4-.03l1.17-.06,1.25-.26c1.25-.26,1.25-.63,1.14-1.27-.12-.68-1.14-1.64-2.03-1.49Z"/>
  </g>
</svg>